<svg height="50" width="62" xmlns="http://www.w3.org/2000/svg"><g fill="none" stroke="#312f6b" stroke-miterlimit="10"><g stroke-linecap="round"><path d="m39.503 21.12c.158.284.574 1.722.94 3.161.637 2.517 1.23 5.053 1.905 7.564.637 2.385 1.539 4.682 1.792 7.186.145 1.451-.568 3.369-1.243 4.644l-.038.069-.441.77c-.757 1.42-1.482 2.556-2.505 3.761-.391.46-.87.744-1.508.852a20.703 20.703 0 0 1 -3.791.29 5.645 5.645 0 0 0 -.751.013c-.58.062-2.978-.038-3.564.006" stroke-width=".631"/><g stroke-width=".946"><path d="m60.41 32.532c.139 1.786.184 1.615 0 2.499-.132.618-.978 1.198-1.501 1.495-2.202 1.242-4.391 2.498-6.719 3.52-2.959 1.3-4.731 1.925-6.706 2.82l-2.474.966" stroke-linejoin="bevel"/><path d="m41.579 2.913c2.529-.088 4.744.145 7.293.359.978.076 2.239.354 3.236.625.277.076.562.132.864.334.58-.473.978-1.091 1.539-1.546.675-.536 1.356-.662 2.133-.359.782.296 1.508.707 2.037 1.363.492.612.523 1.388.523 2.113-.006 1.085-.327 2.082-1.116 2.883-.593.593-1.129 1.249-1.767 1.792-.252.221-.259.454-.189.625.89 2.359 2.89 9.47 4.277 21.431"/><path d="m5.997 8.982c-.851-.864-1.912-1.596-2.593-2.637-.662-1.029-.927-1.956-.138-3.047.883-1.23 1.772-2.341 3.407-2.675.833-.17 1.394-.063 1.899.562.605.745 1.192 1.23 2.347 1.211 1.559-.025 3.129.038 4.694.082 2.75.069 5.501.17 8.252.214 2.852.051 14.857.12 17.715.221"/></g></g><path d="m39.503 21.12c-.416-.669-.788-1.407-1.463-1.861-.833-.562-1.748-.593-2.663-.75-2.454-.423-4.902-.164-7.35-.051-.864.038-1.489.492-2.063 1.186-1.426 1.735-1.823 3.861-2.397 5.918-.543 1.943-1.066 3.886-1.596 5.829-.53 1.949-1.161 3.867-1.552 5.842-.208 1.079-.139 2.233.328 3.325.593 1.413 1.312 2.952 2.189 4.265.214.334.448.656.688.959.574.656 1.685 1.842 2.315 2.252.202.195.625.372.953.543 1.098.58 2.208.927 3.407.857" stroke-width=".631"/><path d="m4.124 17.089c-.354 1.122-2.278 11.576-2.499 12.719-.265 1.368-.479 2.75-.486 4.157-.013 1.444.441 2.467 1.754 3.255 2.744 1.646 6.447 3.451 8.34 4.146 3.685 1.337 9.463 3.154 11.514 3.583m-16.75-35.967c-.328 1.287-.707 2.568-.971 3.867-.284 1.419-.637 2.82-.902 4.24m28.288 29.436c2.107 0 2.051.265 2.713-.221 1.375-1.003 2.624-2.587 3.747-3.772.423-.448 1.307-1.338 1.243-2.126-.113-1.445.101-2.139-.019-3.628-.082-1.016-.253-1.174-1.3-1.3-1.938-.239-3.88-.479-5.829-.574-2.839-.145-1.307-.214-4.467-.019-.801.051-1.608-.063-2.429.12-.637.145-.883.467-.972 1.021-.258 1.553-.41 3.11-.391 4.688.013.549.315.909.694 1.212 1.628 1.299 3.274 2.58 4.915 3.86.285.222.613.739 2.095.739z" stroke-linecap="round" stroke-width=".946"/></g><path d="m39.755 21.459c.177-.246.857-.947.877-1.211.132-1.35 1.35-1.95 2.467-1.249.555.347.649.965.637 1.577-.006.625-.354 1.091-1.041 1.192-.808.113-1.413-.196-1.88-1.003-.505.618-.939 1.129-.675 2.063zm-15.577-1.943c0 .499.448.372 1.079.946l-.189.29c-.132-.139-.631-.53-.909-.593-.019.581-.492.934-.915 1.066-.593.183-1.161.221-1.703-.107-.505-.315-.581-.953-.511-1.489.272-1.93 3.148-1.381 3.148-.113z" fill="#312f6b"/></svg>